<svg width="210" height="57" viewBox="0 0 210 57" fill="none" xmlns="http://www.w3.org/2000/svg">
<path d="M23.9669 56.9989C31.4746 56.9989 37.5607 50.9091 37.5607 43.3969C37.5607 35.8847 31.4746 29.7949 23.9669 29.7949C16.4592 29.7949 10.373 35.8847 10.373 43.3969C10.373 50.9091 16.4592 56.9989 23.9669 56.9989Z" fill="#E82B29"/>
<path d="M17.6019 47.9322C25.6461 47.9322 32.1672 41.4072 32.1672 33.3582C32.1672 25.3092 25.6461 18.7842 17.6019 18.7842C9.55772 18.7842 3.03662 25.3092 3.03662 33.3582C3.03662 41.4072 9.55772 47.9322 17.6019 47.9322Z" fill="#4E9F3B"/>
<path d="M18.7886 37.5675C29.1564 37.5675 37.5611 29.1577 37.5611 18.7837C37.5611 8.40977 29.1564 0 18.7886 0C8.42085 0 0.0161133 8.40977 0.0161133 18.7837C0.0161133 29.1577 8.42085 37.5675 18.7886 37.5675Z" fill="#244496"/>
<path d="M65.3047 15.4064H56.0384V39.199H52.269V15.4064H43.042V11.8369H65.3047V15.4064Z" fill="#1A1818"/>
<path d="M70.1425 39.1985H66.3701V20.4526C69.5238 19.1198 72.9093 18.4227 76.3327 18.4014V21.8474C74.2429 21.8944 72.1657 22.1835 70.1425 22.7091V39.1985Z" fill="#1A1818"/>
<path d="M95.7658 34.8106V38.2149C93.4627 39.1503 90.9946 39.6108 88.5094 39.5688C84.2043 39.5688 79.0796 37.7637 79.0796 29.2316C79.0796 26.5655 79.0796 18.4014 88.1401 18.4014C93.6341 18.4014 97.1605 22.2987 97.1605 28.2881C97.1605 29.273 97.1194 30.2164 97.0372 31.1185H82.9329C83.5073 35.3853 86.0083 36.3288 88.7152 36.3288C91.1538 36.4032 93.5737 35.8821 95.7658 34.8106ZM82.8905 27.7134H93.3866C93.1815 25.3335 92.1977 21.7648 88.1386 21.7648C84.6962 21.7648 83.2205 23.3239 82.8921 27.7134H82.8905Z" fill="#1A1818"/>
<path d="M105.635 11.5908H102.542C102.287 11.5908 102.08 11.7981 102.08 12.0537V15.107C102.08 15.3627 102.287 15.5699 102.542 15.5699H105.635C105.891 15.5699 106.098 15.3627 106.098 15.107V12.0537C106.098 11.7981 105.891 11.5908 105.635 11.5908Z" fill="#E82B29"/>
<path d="M105.974 18.7285H102.202V39.1994H105.974V18.7285Z" fill="#1A1818"/>
<path d="M112.534 39.199V20.4924C115.245 19.1261 118.231 18.3966 121.267 18.3594C126.432 18.3594 129.507 21.2314 129.507 25.9897V39.199H125.735V25.7436C125.735 23.815 125.202 21.8463 121.102 21.8463C119.475 21.8462 117.857 22.0952 116.305 22.5845V39.199H112.534Z" fill="#1A1818"/>
<path d="M151.195 34.8106V38.2149C148.892 39.1503 146.424 39.6108 143.938 39.5688C139.634 39.5688 134.508 37.7637 134.508 29.2316C134.508 26.5655 134.508 18.4014 143.57 18.4014C149.063 18.4014 152.59 22.2987 152.59 28.2881C152.59 29.273 152.549 30.2164 152.467 31.1185H138.362C138.937 35.3853 141.438 36.3288 144.145 36.3288C146.583 36.4031 149.003 35.8821 151.195 34.8106ZM138.32 27.7134H148.816C148.611 25.3335 147.626 21.7648 143.568 21.7648C140.126 21.7648 138.649 23.3239 138.322 27.7134H138.32Z" fill="#1A1818"/>
<path d="M162.101 21.8876V33.7847C162.101 35.549 163.249 36.2055 165.175 36.2055C166.01 36.2259 166.834 36.0121 167.553 35.5883V38.9525C166.63 39.3318 165.641 39.5268 164.643 39.5265C163.332 39.5265 158.37 39.0752 158.37 33.5371V21.8883H154.803V18.7301H158.37V12.6172H162.101V18.7301H167.553V21.8883L162.101 21.8876Z" fill="#1A1818"/>
<path d="M175.947 11.5908H172.855C172.599 11.5908 172.392 11.7984 172.392 12.0545V15.1063C172.392 15.3623 172.599 15.5699 172.855 15.5699H175.947C176.202 15.5699 176.41 15.3623 176.41 15.1063V12.0545C176.41 11.7984 176.202 11.5908 175.947 11.5908Z" fill="#E82B29"/>
<path d="M176.286 18.7285H172.514V39.1994H176.286V18.7285Z" fill="#1A1818"/>
<path d="M197.196 34.8104V38.3791C195.277 39.137 193.232 39.5267 191.169 39.5278C184.937 39.5278 181.532 35.7539 181.532 28.9436C181.532 22.1334 184.935 18.4004 191.169 18.4004C193.232 18.4015 195.277 18.7911 197.196 19.5491V23.1185C195.42 22.2482 193.473 21.7856 191.497 21.7646C188.381 21.7646 185.47 22.6672 185.47 28.9436C185.47 35.2609 188.381 36.1226 191.497 36.1226C193.47 36.115 195.417 35.6667 197.196 34.8104Z" fill="#1A1818"/>
</svg>
